<mxfile host="Electron" modified="2023-11-17T13:06:34.324Z" agent="Mozilla/5.0 (Windows NT 10.0; Win64; x64) AppleWebKit/537.36 (KHTML, like Gecko) draw.io/21.5.1 Chrome/112.0.5615.204 Electron/24.6.0 Safari/537.36" etag="p9j5TkSA8l0T87cmtH9k" version="21.5.1" type="device">
  <diagram name="64bit" id="gj8AOYcbrfzNWveWPIcX">
    <mxGraphModel dx="714" dy="418" grid="1" gridSize="10" guides="1" tooltips="1" connect="1" arrows="1" fold="1" page="1" pageScale="1" pageWidth="827" pageHeight="1169" math="0" shadow="0">
      <root>
        <mxCell id="0" />
        <mxCell id="1" parent="0" />
        <mxCell id="b4kpCnQY3XshHo8cQK8Q-1" value="锁状态" style="rounded=0;whiteSpace=wrap;html=1;fillColor=#dae8fc;strokeColor=#6c8ebf;" vertex="1" parent="1">
          <mxGeometry x="170" y="210" width="60" height="30" as="geometry" />
        </mxCell>
        <mxCell id="b4kpCnQY3XshHo8cQK8Q-2" value="无锁" style="rounded=0;whiteSpace=wrap;html=1;fillColor=#dae8fc;strokeColor=#6c8ebf;" vertex="1" parent="1">
          <mxGeometry x="170" y="240" width="60" height="30" as="geometry" />
        </mxCell>
        <mxCell id="b4kpCnQY3XshHo8cQK8Q-3" value="偏向锁" style="rounded=0;whiteSpace=wrap;html=1;fillColor=#dae8fc;strokeColor=#6c8ebf;" vertex="1" parent="1">
          <mxGeometry x="170" y="270" width="60" height="30" as="geometry" />
        </mxCell>
        <mxCell id="b4kpCnQY3XshHo8cQK8Q-4" value="轻量级锁" style="rounded=0;whiteSpace=wrap;html=1;fillColor=#dae8fc;strokeColor=#6c8ebf;" vertex="1" parent="1">
          <mxGeometry x="170" y="300" width="60" height="30" as="geometry" />
        </mxCell>
        <mxCell id="b4kpCnQY3XshHo8cQK8Q-5" value="重量级锁" style="rounded=0;whiteSpace=wrap;html=1;fillColor=#dae8fc;strokeColor=#6c8ebf;" vertex="1" parent="1">
          <mxGeometry x="170" y="330" width="60" height="30" as="geometry" />
        </mxCell>
        <mxCell id="b4kpCnQY3XshHo8cQK8Q-6" value="GC标记" style="rounded=0;whiteSpace=wrap;html=1;fillColor=#dae8fc;strokeColor=#6c8ebf;" vertex="1" parent="1">
          <mxGeometry x="170" y="360" width="60" height="30" as="geometry" />
        </mxCell>
        <mxCell id="b4kpCnQY3XshHo8cQK8Q-8" value="锁标志位(2bit)" style="rounded=0;whiteSpace=wrap;html=1;fillColor=#dae8fc;strokeColor=#6c8ebf;" vertex="1" parent="1">
          <mxGeometry x="650" y="210" width="80" height="30" as="geometry" />
        </mxCell>
        <mxCell id="b4kpCnQY3XshHo8cQK8Q-9" value="空(25bit)" style="rounded=0;whiteSpace=wrap;html=1;" vertex="1" parent="1">
          <mxGeometry x="230" y="240" width="90" height="30" as="geometry" />
        </mxCell>
        <mxCell id="b4kpCnQY3XshHo8cQK8Q-10" value="hash code(31bit)" style="rounded=0;whiteSpace=wrap;html=1;" vertex="1" parent="1">
          <mxGeometry x="320" y="240" width="100" height="30" as="geometry" />
        </mxCell>
        <mxCell id="b4kpCnQY3XshHo8cQK8Q-11" value="空(1bit)" style="rounded=0;whiteSpace=wrap;html=1;" vertex="1" parent="1">
          <mxGeometry x="420" y="240" width="60" height="30" as="geometry" />
        </mxCell>
        <mxCell id="b4kpCnQY3XshHo8cQK8Q-12" value="分代年龄(4bit)" style="rounded=0;whiteSpace=wrap;html=1;" vertex="1" parent="1">
          <mxGeometry x="480" y="240" width="80" height="30" as="geometry" />
        </mxCell>
        <mxCell id="b4kpCnQY3XshHo8cQK8Q-13" value="01" style="rounded=0;whiteSpace=wrap;html=1;fillColor=#ffe6cc;strokeColor=#d79b00;" vertex="1" parent="1">
          <mxGeometry x="650" y="240" width="80" height="30" as="geometry" />
        </mxCell>
        <mxCell id="b4kpCnQY3XshHo8cQK8Q-14" value="0" style="rounded=0;whiteSpace=wrap;html=1;fillColor=#d5e8d4;strokeColor=#82b366;" vertex="1" parent="1">
          <mxGeometry x="560" y="240" width="90" height="30" as="geometry" />
        </mxCell>
        <mxCell id="b4kpCnQY3XshHo8cQK8Q-15" value="是否偏向锁(1bit)" style="rounded=0;whiteSpace=wrap;html=1;fillColor=#dae8fc;strokeColor=#6c8ebf;" vertex="1" parent="1">
          <mxGeometry x="560" y="210" width="90" height="30" as="geometry" />
        </mxCell>
        <mxCell id="b4kpCnQY3XshHo8cQK8Q-16" value="空(1bit)" style="rounded=0;whiteSpace=wrap;html=1;" vertex="1" parent="1">
          <mxGeometry x="420" y="270" width="60" height="30" as="geometry" />
        </mxCell>
        <mxCell id="b4kpCnQY3XshHo8cQK8Q-17" value="分代年龄(4bit)" style="rounded=0;whiteSpace=wrap;html=1;" vertex="1" parent="1">
          <mxGeometry x="480" y="270" width="80" height="30" as="geometry" />
        </mxCell>
        <mxCell id="b4kpCnQY3XshHo8cQK8Q-18" value="01" style="rounded=0;whiteSpace=wrap;html=1;fillColor=#ffe6cc;strokeColor=#d79b00;" vertex="1" parent="1">
          <mxGeometry x="650" y="270" width="80" height="30" as="geometry" />
        </mxCell>
        <mxCell id="b4kpCnQY3XshHo8cQK8Q-19" value="1" style="rounded=0;whiteSpace=wrap;html=1;fillColor=#d5e8d4;strokeColor=#82b366;" vertex="1" parent="1">
          <mxGeometry x="560" y="270" width="90" height="30" as="geometry" />
        </mxCell>
        <mxCell id="b4kpCnQY3XshHo8cQK8Q-20" value="当前线程指针(54bit)" style="rounded=0;whiteSpace=wrap;html=1;" vertex="1" parent="1">
          <mxGeometry x="230" y="270" width="120" height="30" as="geometry" />
        </mxCell>
        <mxCell id="b4kpCnQY3XshHo8cQK8Q-22" value="epoch(2bit)" style="rounded=0;whiteSpace=wrap;html=1;" vertex="1" parent="1">
          <mxGeometry x="350" y="270" width="70" height="30" as="geometry" />
        </mxCell>
        <mxCell id="b4kpCnQY3XshHo8cQK8Q-23" value="指向线程的栈中的锁记录的指针(62bit)" style="rounded=0;whiteSpace=wrap;html=1;" vertex="1" parent="1">
          <mxGeometry x="230" y="300" width="420" height="30" as="geometry" />
        </mxCell>
        <mxCell id="b4kpCnQY3XshHo8cQK8Q-24" value="00" style="rounded=0;whiteSpace=wrap;html=1;fillColor=#ffe6cc;strokeColor=#d79b00;" vertex="1" parent="1">
          <mxGeometry x="650" y="300" width="80" height="30" as="geometry" />
        </mxCell>
        <mxCell id="b4kpCnQY3XshHo8cQK8Q-25" value="指向对象监视器的指针(62bit)" style="rounded=0;whiteSpace=wrap;html=1;" vertex="1" parent="1">
          <mxGeometry x="230" y="330" width="420" height="30" as="geometry" />
        </mxCell>
        <mxCell id="b4kpCnQY3XshHo8cQK8Q-26" value="10" style="rounded=0;whiteSpace=wrap;html=1;fillColor=#ffe6cc;strokeColor=#d79b00;" vertex="1" parent="1">
          <mxGeometry x="650" y="330" width="80" height="30" as="geometry" />
        </mxCell>
        <mxCell id="b4kpCnQY3XshHo8cQK8Q-27" value="CMS标记对象是否存活的标记信息" style="rounded=0;whiteSpace=wrap;html=1;" vertex="1" parent="1">
          <mxGeometry x="230" y="360" width="420" height="30" as="geometry" />
        </mxCell>
        <mxCell id="b4kpCnQY3XshHo8cQK8Q-28" value="11" style="rounded=0;whiteSpace=wrap;html=1;fillColor=#ffe6cc;strokeColor=#d79b00;" vertex="1" parent="1">
          <mxGeometry x="650" y="360" width="80" height="30" as="geometry" />
        </mxCell>
      </root>
    </mxGraphModel>
  </diagram>
</mxfile>
